/* XPM */
static const char *logo32[] = {
/* columns rows colors chars-per-pixel */
"32 32 16 1 ",
"  c #323232",
". c gray20",
"X c gray25",
"o c gray30",
"O c gray35",
"+ c gray40",
"@ c #808080",
"# c gray60",
"$ c #A5A5A5",
"% c #B2B2B2",
"& c gray80",
"* c gray85",
"= c gray90",
"- c gray95",
"; c gray100",
": c None",
/* pixels */
"::::::::::::::::::::::::::::::::",
"::::::::::::::::::::::::::::::::",
":::::::::..............:::::::::",
":::::::..................:::::::",
"::::::....................::::::",
":::..:....................:..:::",
".....:...@##........##@...:.....",
".....:...&;;+o....X+;;&...:.....",
":....:...&;;;#....+;;;&...:....:",
":::..:...&;;;#....+;;;&...:..:::",
"::::::...&;;;&@..+%;;;&...::::::",
"::::::...&;;;;&..#;;;;&...::::::",
"::::::...&;;;;&..#;;;;&...::::::",
"::::::...&;;+%-&&=*+;;&...::::::",
"::...:...&;;.#;;;;&.;;&...:...::",
".....:...&;;.@*;;=$.;;&...:.....",
".....:...&;;..+;;#..;;&...:.....",
"::...:...&;;..+;;#..;;&...:...::",
"::::::...&;;..o##+..;;&...::::::",
"::::::...&;;........;;&...::::::",
"::::::...&;;........;;&...::::::",
"::::::...&;;........;;&...::::::",
":::..:...&;;........;;&...:..:::",
":....:...&;;........;;&...:....:",
".....:...&;;........;;&...:.....",
".....:...O++........++O...:.....",
":::..:....................:..:::",
"::::::....................::::::",
":::::::..................:::::::",
":::::::::..............:::::::::",
"::::::::::::::::::::::::::::::::",
"::::::::::::::::::::::::::::::::"
};
